<svg width="161" height="48" viewBox="0 0 161 48" fill="none" xmlns="http://www.w3.org/2000/svg">
<g clip-path="url(#clip0)">
<path d="M154.1 47.5H5.9C2.6 47.5 0 44.8 0 41.6V6C0 2.7 2.7 0 5.9 0H154C157.3 0 159.9 2.7 159.9 5.9V41.5C160 44.8 157.3 47.5 154.1 47.5Z" fill="black"/>
<path d="M154.1 1C156.8 1 159.1 3.2 159.1 6V41.6C159.1 44.3 156.9 46.6 154.1 46.6H5.9C3.2 46.6 0.9 44.4 0.9 41.6V6C0.9 3.3 3.1 1 5.9 1H154.1ZM154.1 0H5.9C2.7 0 0 2.7 0 6V41.6C0 44.9 2.7 47.5 5.9 47.5H154C157.3 47.5 159.9 44.8 159.9 41.6V6C160 2.7 157.3 0 154.1 0Z" fill="#A6A6A6"/>
<path d="M56.2 12.2C56.2 13.2 55.9 14 55.3 14.6C54.6 15.3 53.8 15.7 52.7 15.7C51.7 15.7 50.8 15.3 50.1 14.6C49.4 13.9 49 13 49 12C49 10.9 49.4 10.1 50.1 9.39999C50.8 8.69999 51.7 8.29999 52.7 8.29999C53.2 8.29999 53.7 8.39999 54.2 8.59999C54.7 8.79999 55 9.09999 55.3 9.39999L54.7 9.99999C54.2 9.39999 53.6 9.19999 52.8 9.19999C52.1 9.19999 51.4 9.49999 50.9 9.99999C50.4 10.5 50.1 11.2 50.1 12.1C50.1 12.9 50.4 13.6 50.9 14.2C51.4 14.7 52.1 15 52.8 15C53.6 15 54.3 14.7 54.8 14.2C55.1 13.9 55.3 13.4 55.4 12.8H52.8V11.9H56.2V12.2Z" fill="white"/>
<path d="M56.2 12.2C56.2 13.2 55.9 14 55.3 14.6C54.6 15.3 53.8 15.7 52.7 15.7C51.7 15.7 50.8 15.3 50.1 14.6C49.4 13.9 49 13 49 12C49 10.9 49.4 10.1 50.1 9.39999C50.8 8.69999 51.7 8.29999 52.7 8.29999C53.2 8.29999 53.7 8.39999 54.2 8.59999C54.7 8.79999 55 9.09999 55.3 9.39999L54.7 9.99999C54.2 9.39999 53.6 9.19999 52.8 9.19999C52.1 9.19999 51.4 9.49999 50.9 9.99999C50.4 10.5 50.1 11.2 50.1 12.1C50.1 12.9 50.4 13.6 50.9 14.2C51.4 14.7 52.1 15 52.8 15C53.6 15 54.3 14.7 54.8 14.2C55.1 13.9 55.3 13.4 55.4 12.8H52.8V11.9H56.2V12.2V12.2Z" stroke="white" stroke-width="0.2" stroke-miterlimit="10"/>
<path d="M61.7 9.19999H58.4V11.5H61.3V12.3H58.4V14.6H61.7V15.5H57.5V8.29999H61.7V9.19999Z" fill="white"/>
<path d="M61.7 9.19999H58.4V11.5H61.3V12.3H58.4V14.6H61.7V15.5H57.5V8.29999H61.7V9.19999Z" stroke="white" stroke-width="0.2" stroke-miterlimit="10"/>
<path d="M65.5 15.5H64.6V9.19999H62.6V8.29999H67.5V9.19999H65.5V15.5Z" fill="white"/>
<path d="M65.5 15.5H64.6V9.19999H62.6V8.29999H67.5V9.19999H65.5V15.5Z" stroke="white" stroke-width="0.2" stroke-miterlimit="10"/>
<path d="M71 8.29999H71.9V15.4H71V8.29999Z" fill="white"/>
<path d="M71 8.29999H71.9V15.4H71V8.29999Z" stroke="white" stroke-width="0.2" stroke-miterlimit="10"/>
<path d="M76 15.5H75.1V9.19999H73.1V8.29999H78V9.19999H76V15.5Z" fill="white"/>
<path d="M76 15.5H75.1V9.19999H73.1V8.29999H78V9.19999H76V15.5Z" stroke="white" stroke-width="0.2" stroke-miterlimit="10"/>
<path d="M87.2 14.5C86.5 15.2 85.6 15.6 84.6 15.6C83.6 15.6 82.7 15.2 82 14.5C81.3 13.8 81 12.9 81 11.9C81 10.9 81.3 10 82 9.30001C82.7 8.60001 83.6 8.20001 84.6 8.20001C85.6 8.20001 86.5 8.60001 87.2 9.30001C87.9 10 88.3 10.9 88.3 11.9C88.3 12.9 87.9 13.8 87.2 14.5ZM82.7 13.9C83.2 14.4 83.9 14.7 84.6 14.7C85.3 14.7 86 14.4 86.5 13.9C87 13.4 87.3 12.7 87.3 11.9C87.3 11.1 87 10.4 86.5 9.90001C86 9.40001 85.3 9.10001 84.6 9.10001C83.9 9.10001 83.2 9.40001 82.7 9.90001C82.2 10.4 81.9 11.1 81.9 11.9C81.9 12.7 82.2 13.4 82.7 13.9Z" fill="white"/>
<path d="M87.2 14.5C86.5 15.2 85.6 15.6 84.6 15.6C83.6 15.6 82.7 15.2 82 14.5C81.3 13.8 81 12.9 81 11.9C81 10.9 81.3 10 82 9.30001C82.7 8.60001 83.6 8.20001 84.6 8.20001C85.6 8.20001 86.5 8.60001 87.2 9.30001C87.9 10 88.3 10.9 88.3 11.9C88.3 12.9 87.9 13.8 87.2 14.5ZM82.7 13.9C83.2 14.4 83.9 14.7 84.6 14.7C85.3 14.7 86 14.4 86.5 13.9C87 13.4 87.3 12.7 87.3 11.9C87.3 11.1 87 10.4 86.5 9.90001C86 9.40001 85.3 9.10001 84.6 9.10001C83.9 9.10001 83.2 9.40001 82.7 9.90001C82.2 10.4 81.9 11.1 81.9 11.9C81.9 12.7 82.2 13.4 82.7 13.9Z" stroke="white" stroke-width="0.2" stroke-miterlimit="10"/>
<path d="M89.6 15.5V8.29999H90.7L94.1 13.9H94.2L94.1 12.5V8.29999H95.1V15.5H94.1L90.5 9.69999H90.4L90.5 11V15.5H89.6Z" fill="white"/>
<path d="M89.6 15.5V8.29999H90.7L94.1 13.9H94.2L94.1 12.5V8.29999H95.1V15.5H94.1L90.5 9.69999H90.4L90.5 11V15.5H89.6Z" stroke="white" stroke-width="0.2" stroke-miterlimit="10"/>
<path d="M80.8 25.8C78 25.8 75.7 27.9 75.7 30.8C75.7 33.7 78 35.8 80.8 35.8C83.6 35.8 85.9 33.7 85.9 30.8C85.8 27.9 83.5 25.8 80.8 25.8ZM80.8 33.9C79.3 33.9 78 32.6 78 30.8C78 29 79.3 27.7 80.8 27.7C82.3 27.7 83.6 28.9 83.6 30.8C83.6 32.7 82.3 33.9 80.8 33.9ZM69.7 25.8C66.9 25.8 64.6 27.9 64.6 30.8C64.6 33.7 66.9 35.8 69.7 35.8C72.5 35.8 74.8 33.7 74.8 30.8C74.8 27.9 72.5 25.8 69.7 25.8ZM69.7 33.9C68.2 33.9 66.9 32.6 66.9 30.8C66.9 29 68.2 27.7 69.7 27.7C71.2 27.7 72.5 28.9 72.5 30.8C72.6 32.7 71.2 33.9 69.7 33.9ZM56.6 27.4V29.5H61.7C61.5 30.7 61.1 31.6 60.5 32.2C59.8 32.9 58.6 33.8 56.5 33.8C53.3 33.8 50.9 31.3 50.9 28.1C50.9 24.9 53.4 22.4 56.5 22.4C58.2 22.4 59.4 23.1 60.4 23.9L61.9 22.4C60.6 21.2 58.9 20.2 56.5 20.2C52.2 20.2 48.6 23.7 48.6 28C48.6 32.3 52.2 35.8 56.5 35.8C58.8 35.8 60.6 35 62 33.6C63.4 32.2 63.9 30.2 63.9 28.6C63.9 28.1 63.9 27.6 63.8 27.3H56.6V27.4ZM110.3 29C109.9 27.9 108.6 25.8 106 25.8C103.4 25.8 101.2 27.8 101.2 30.8C101.2 33.6 103.3 35.8 106.2 35.8C108.5 35.8 109.8 34.4 110.4 33.6L108.7 32.5C108.1 33.3 107.3 33.9 106.2 33.9C105.1 33.9 104.3 33.4 103.8 32.4L110.5 29.6L110.3 29ZM103.4 30.7C103.3 28.8 104.9 27.8 106 27.8C106.9 27.8 107.6 28.2 107.9 28.9L103.4 30.7ZM97.9 35.6H100.1V20.8H97.9V35.6ZM94.3 27C93.7 26.4 92.8 25.9 91.6 25.9C89.1 25.9 86.8 28.1 86.8 31C86.8 33.8 89.1 36 91.6 36C92.8 36 93.8 35.5 94.3 34.9H94.4V35.6C94.4 37.5 93.4 38.6 91.7 38.6C90.3 38.6 89.5 37.6 89.2 36.8L87.3 37.6C87.9 38.9 89.3 40.6 91.8 40.6C94.4 40.6 96.6 39.1 96.6 35.3V26.2H94.5V27H94.3ZM91.8 33.9C90.3 33.9 89 32.6 89 30.9C89 29.1 90.3 27.8 91.8 27.8C93.3 27.8 94.5 29.1 94.5 30.9C94.5 32.6 93.3 33.9 91.8 33.9ZM120.7 20.8H115.4V35.6H117.6V30H120.7C123.2 30 125.6 28.2 125.6 25.4C125.6 22.6 123.1 20.8 120.7 20.8ZM120.7 27.9H117.6V22.8H120.7C122.4 22.8 123.3 24.2 123.3 25.3C123.3 26.5 122.4 27.9 120.7 27.9ZM134.4 25.8C132.8 25.8 131.1 26.5 130.5 28.1L132.5 28.9C132.9 28.1 133.7 27.8 134.5 27.8C135.6 27.8 136.8 28.5 136.8 29.7V29.9C136.4 29.7 135.5 29.3 134.5 29.3C132.4 29.3 130.2 30.5 130.2 32.6C130.2 34.6 131.9 35.9 133.9 35.9C135.4 35.9 136.2 35.2 136.7 34.5H136.8V35.6H138.9V29.9C138.9 27.3 136.9 25.8 134.4 25.8ZM134.1 33.9C133.4 33.9 132.4 33.5 132.4 32.6C132.4 31.5 133.7 31 134.7 31C135.7 31 136.1 31.2 136.7 31.5C136.6 32.9 135.4 33.9 134.1 33.9ZM146.7 26.1L144.2 32.5H144L141.4 26.1H139L142.9 35.1L140.7 40.1H143L149.1 26.1H146.7ZM126.7 35.6H128.9V20.8H126.7V35.6Z" fill="white"/>
<path d="M12.5 9.09998C12.1 9.49998 11.9 10.1 11.9 10.9V10.7V36.9V36.7C11.9 37.4 12.1 38 12.4 38.4L12.5 38.5L27.2 23.8L12.5 9.09998Z" fill="url(#paint0_linear)"/>
<path d="M32 18.9L27.1 23.8L32 28.7L32.1 28.8H32H32.1L37.9 25.5C38.3 25.3 38.7 25 38.9 24.7C38.7 25 38.4 25.3 37.9 25.5L32.1 28.8L32 28.6L37.9 25.2C38.7 24.8 39.1 24.2 39.1 23.7C39 23.1 38.6 22.6 37.9 22.2L32 18.9Z" fill="url(#paint1_linear)"/>
<path d="M12.5 38.6C12.8 38.9 13.1 39 13.5 39C13.1 39 12.7 38.9 12.5 38.6ZM12.4 38.5C12.4 38.6 12.4 38.6 12.4 38.5V38.5ZM27.1 23.7L12.5 38.4L12.4 38.5L12.5 38.4C12.8 38.7 13.1 38.8 13.5 38.8C13.9 38.8 14.4 38.7 14.8 38.4L32 28.6L27.1 23.7Z" fill="url(#paint2_linear)"/>
<path d="M13.5 8.7C13.1 8.7 12.7 8.8 12.5 9.1L27.2 23.8L32.1 18.9L14.8 9.1C14.4 8.8 13.9 8.7 13.5 8.7ZM13.5 8.5H13.3H13.5C13.9 8.5 14.4 8.6 14.8 8.9L32.1 18.7L14.8 8.9C14.4 8.6 13.9 8.5 13.5 8.5Z" fill="url(#paint3_linear)"/>
<path d="M12.4 38.6C12.5 38.6 12.5 38.6 12.4 38.6C12.5 38.6 12.4 38.6 12.4 38.6ZM14.8 38.6C14.4 38.8 14 39 13.6 39C14 39 14.4 38.8 14.8 38.6Z" fill="black"/>
<path d="M32 28.6L14.8 38.4C14.3 38.7 13.9 38.8 13.5 38.8C13.1 38.8 12.7 38.7 12.5 38.4L12.4 38.5L12.5 38.6C12.8 38.9 13.1 39 13.5 39H13.6C14 39 14.4 38.9 14.8 38.6L32.1 28.8L32 28.6Z" fill="url(#paint4_linear)"/>
<path d="M11.8 36.9C11.8 37.6 12 38.2 12.3 38.6C12 38.2 11.8 37.6 11.8 36.9Z" fill="black"/>
<path d="M11.8 36.7V36.9C11.8 37.6 12 38.2 12.3 38.6L12.4 38.5L12.3 38.4C12 38 11.8 37.4 11.8 36.7Z" fill="url(#paint5_linear)"/>
<path d="M12.5 38.4L12.4 38.5L12.5 38.4Z" fill="url(#paint6_linear)"/>
<path d="M39.2 23.8C39.2 24.1 39.1 24.4 38.9 24.7C39.1 24.3 39.2 24 39.2 23.8Z" fill="black"/>
<path d="M39.2 23.8C39.1 24.4 38.7 24.9 38 25.3L32 28.6L32.1 28.7L37.9 25.4C38.3 25.2 38.7 24.9 38.9 24.6C39.1 24.3 39.2 24 39.2 23.8Z" fill="url(#paint7_linear)"/>
<path d="M32.1 18.7L37.9001 22C38.7001 22.5 39.1 23.1 39.1 23.7C39.1 23.1 38.7001 22.5 37.9001 22L32.1 18.7ZM13.3 8.5C12.4 8.6 11.9 9.3 11.8 10.4C11.8 9.8 12 9.3 12.3 9L12.4 8.9C12.7 8.7 13 8.5 13.3 8.5Z" fill="#404040"/>
<path d="M12.4 9.00002C12.1 9.30002 11.9 9.80002 11.9 10.4V10.8C11.8 10 12.1 9.40002 12.4 9.00002ZM12.5 8.90002C12.4 8.90002 12.5 8.90002 12.5 8.90002V8.90002Z" fill="url(#paint8_linear)"/>
<path d="M32.1 18.7L32 18.9L37.9 22.3C38.7 22.7 39.1 23.3 39.1 23.8C39.1 23.2 38.7 22.6 37.9 22.1L32.1 18.7Z" fill="url(#paint9_linear)"/>
<path d="M13.5 8.5H13.3C13 8.5 12.7 8.7 12.4 8.9L12.3 9L12.4 9.1C12.7 8.8 13 8.7 13.4 8.7C13.8 8.7 14.3 8.8 14.7 9.1L32 18.9L32.1 18.8L14.8 8.9C14.4 8.6 13.9 8.5 13.5 8.5Z" fill="url(#paint10_linear)"/>
</g>
<defs>
<linearGradient id="paint0_linear" x1="25.8378" y1="10.352" x2="5.93391" y2="30.2559" gradientUnits="userSpaceOnUse">
<stop stop-color="#00A0FF"/>
<stop offset="0.007" stop-color="#00A1FF"/>
<stop offset="0.26" stop-color="#00BEFF"/>
<stop offset="0.512" stop-color="#00D2FF"/>
<stop offset="0.76" stop-color="#00DFFF"/>
<stop offset="1" stop-color="#00E3FF"/>
</linearGradient>
<linearGradient id="paint1_linear" x1="40.1085" y1="23.8362" x2="11.4352" y2="23.8362" gradientUnits="userSpaceOnUse">
<stop stop-color="#FFE000"/>
<stop offset="0.409" stop-color="#FFBD00"/>
<stop offset="0.775" stop-color="#FFA500"/>
<stop offset="1" stop-color="#FF9C00"/>
</linearGradient>
<linearGradient id="paint2_linear" x1="29.3626" y1="26.4175" x2="2.39399" y2="53.3861" gradientUnits="userSpaceOnUse">
<stop stop-color="#FF3A44"/>
<stop offset="1" stop-color="#C31162"/>
</linearGradient>
<linearGradient id="paint3_linear" x1="8.64868" y1="0.252587" x2="20.6913" y2="12.2952" gradientUnits="userSpaceOnUse">
<stop stop-color="#32A071"/>
<stop offset="0.069" stop-color="#2DA771"/>
<stop offset="0.476" stop-color="#15CF74"/>
<stop offset="0.801" stop-color="#06E775"/>
<stop offset="1" stop-color="#00F076"/>
</linearGradient>
<linearGradient id="paint4_linear" x1="29.4308" y1="26.4858" x2="2.46226" y2="53.4544" gradientUnits="userSpaceOnUse">
<stop stop-color="#CC2E36"/>
<stop offset="1" stop-color="#9C0E4E"/>
</linearGradient>
<linearGradient id="paint5_linear" x1="32.5844" y1="17.0986" x2="12.6805" y2="37.0025" gradientUnits="userSpaceOnUse">
<stop stop-color="#008DE0"/>
<stop offset="0.007" stop-color="#008DE0"/>
<stop offset="0.26" stop-color="#00A7E0"/>
<stop offset="0.512" stop-color="#00B8E0"/>
<stop offset="0.76" stop-color="#00C4E0"/>
<stop offset="1" stop-color="#00C7E0"/>
</linearGradient>
<linearGradient id="paint6_linear" x1="26.9275" y1="23.9826" x2="-0.0406849" y2="50.9513" gradientUnits="userSpaceOnUse">
<stop stop-color="#E0333C"/>
<stop offset="1" stop-color="#AB0F56"/>
</linearGradient>
<linearGradient id="paint7_linear" x1="40.1086" y1="26.2558" x2="11.4352" y2="26.2558" gradientUnits="userSpaceOnUse">
<stop stop-color="#E0C500"/>
<stop offset="0.409" stop-color="#E0A600"/>
<stop offset="0.775" stop-color="#E09100"/>
<stop offset="1" stop-color="#E08900"/>
</linearGradient>
<linearGradient id="paint8_linear" x1="18.7388" y1="3.25308" x2="-1.16509" y2="23.157" gradientUnits="userSpaceOnUse">
<stop stop-color="#40B8FF"/>
<stop offset="0.007" stop-color="#40B9FF"/>
<stop offset="0.26" stop-color="#40CEFF"/>
<stop offset="0.512" stop-color="#40DDFF"/>
<stop offset="0.76" stop-color="#40E7FF"/>
<stop offset="1" stop-color="#40EAFF"/>
</linearGradient>
<linearGradient id="paint9_linear" x1="40.1086" y1="21.2471" x2="11.4352" y2="21.2471" gradientUnits="userSpaceOnUse">
<stop stop-color="#FFE840"/>
<stop offset="0.409" stop-color="#FFCE40"/>
<stop offset="0.775" stop-color="#FFBC40"/>
<stop offset="1" stop-color="#FFB540"/>
</linearGradient>
<linearGradient id="paint10_linear" x1="8.64873" y1="0.252587" x2="20.6913" y2="12.2952" gradientUnits="userSpaceOnUse">
<stop stop-color="#65B895"/>
<stop offset="0.069" stop-color="#62BD95"/>
<stop offset="0.476" stop-color="#50DB97"/>
<stop offset="0.801" stop-color="#44ED98"/>
<stop offset="1" stop-color="#40F498"/>
</linearGradient>
<clipPath id="clip0">
<rect width="160.3" height="47.5" fill="white"/>
</clipPath>
</defs>
</svg>
