<svg width="161" height="53" viewBox="0 0 161 53" fill="none" xmlns="http://www.w3.org/2000/svg">
<g clip-path="url(#clip0)">
<path d="M160.42 45.471C160.424 47.3516 159.68 49.1566 158.353 50.4892C157.027 51.8218 155.225 52.5728 153.344 52.577H7.37806C6.44673 52.5752 5.52487 52.3899 4.66514 52.0318C3.8054 51.6737 3.02461 51.1498 2.36736 50.4899C1.7101 49.8301 1.18925 49.0472 0.834548 48.1861C0.479841 47.3249 0.298222 46.4023 0.300063 45.471V7.105C0.298222 6.17371 0.479848 5.25118 0.834567 4.39009C1.18929 3.529 1.71015 2.74622 2.36742 2.08645C3.02468 1.42667 3.80548 0.902833 4.66521 0.544837C5.52494 0.186842 6.44677 0.00170552 7.37806 0H153.344C154.275 0.00183659 155.197 0.187077 156.056 0.545144C156.916 0.90321 157.697 1.42709 158.354 2.08686C159.011 2.74664 159.531 3.52938 159.886 4.3904C160.241 5.25142 160.422 6.17384 160.42 7.105V45.471Z" fill="#010101"/>
<path d="M42.214 34.7529C41.5719 36.2901 40.7832 37.7619 39.859 39.1479C38.33 41.4759 36.176 44.3739 33.507 44.3979C31.134 44.4189 30.52 42.8539 27.307 42.8719C24.094 42.8899 23.416 44.4249 21.044 44.4039C18.374 44.378 16.333 41.7619 14.804 39.4349C10.529 32.9269 10.082 25.2919 12.718 21.2349C13.5153 19.9082 14.626 18.7974 15.9526 17.9999C17.2793 17.2024 18.7813 16.7427 20.327 16.6609C23.156 16.6609 24.935 18.2149 27.274 18.2149C29.544 18.2149 30.927 16.6609 34.197 16.6609C35.5563 16.7221 36.8852 17.0828 38.0888 17.7175C39.2923 18.3521 40.3408 19.2449 41.159 20.3319C39.8284 21.0687 38.7365 22.1711 38.0126 23.5088C37.2888 24.8466 36.9632 26.3636 37.0744 27.8806C37.1856 29.3975 37.7289 30.8509 38.6401 32.0688C39.5512 33.2867 40.7921 34.2181 42.216 34.7529H42.214Z" fill="white"/>
<path d="M31.717 14.055C32.3865 13.2406 32.8872 12.3011 33.1899 11.2912C33.4926 10.2814 33.5912 9.22135 33.48 8.17297C31.3237 8.42991 29.3449 9.49437 27.942 11.152C27.2541 11.9272 26.7374 12.8387 26.4255 13.827C26.1136 14.8154 26.0136 15.8584 26.132 16.888C27.2156 16.8638 28.2799 16.5967 29.2466 16.1064C30.2132 15.6161 31.0574 14.915 31.717 14.055Z" fill="white"/>
<path d="M55.2351 21.132L49.1121 39.157H51.9171L53.7451 33.622H59.6741L61.5541 39.157H64.4291L58.2801 21.132H55.2351ZM56.6881 24.096C56.8951 24.896 57.1181 25.735 57.4051 26.638L59.0561 31.418H54.3591L55.9871 26.607C56.2341 25.827 56.4701 24.985 56.6871 24.096H56.6881Z" fill="white"/>
<path d="M72.359 25.806C71.521 25.7693 70.6868 25.94 69.9305 26.3028C69.1741 26.6656 68.519 27.2094 68.023 27.886L67.915 26.094H65.421L65.435 26.323C65.509 27.44 65.535 28.669 65.535 30.434V44.326H68.267V37.84C68.7332 38.3635 69.3088 38.7782 69.953 39.0547C70.5972 39.3312 71.2943 39.4627 71.995 39.44C72.7675 39.4472 73.5332 39.2951 74.2442 38.9929C74.9551 38.6908 75.5961 38.2451 76.127 37.684C77.3904 36.2372 78.0467 34.3587 77.959 32.44C78.0202 30.7055 77.4579 29.0065 76.374 27.651C75.882 27.0667 75.267 26.5983 74.5729 26.2794C73.8788 25.9604 73.1228 25.7988 72.359 25.806ZM71.679 28.063C74.11 28.063 75.198 30.315 75.198 32.546C75.198 35.425 73.809 37.206 71.575 37.206C70.8332 37.206 70.113 36.9565 69.5302 36.4976C68.9474 36.0387 68.536 35.3971 68.362 34.676C68.2908 34.3868 68.2572 34.0897 68.262 33.792V31.6C68.2721 31.3736 68.3009 31.1485 68.348 30.927C68.361 30.853 68.377 30.778 68.387 30.706C68.5661 29.9633 68.9864 29.301 69.5821 28.8228C70.1778 28.3445 70.9152 28.0773 71.679 28.063Z" fill="white"/>
<path d="M86.399 25.806C85.5611 25.7695 84.7272 25.9402 83.971 26.303C83.2149 26.6659 82.5599 27.2096 82.064 27.886L81.959 26.094H79.468L79.483 26.323C79.557 27.442 79.588 28.669 79.588 30.434V44.326H82.315V37.84C82.7812 38.363 83.3565 38.7773 84.0003 39.0538C84.6441 39.3303 85.3407 39.4621 86.041 39.44C86.8138 39.4465 87.5796 39.2938 88.2908 38.9915C89.002 38.6893 89.6434 38.2438 90.175 37.683C91.4346 36.2349 92.0878 34.3572 91.999 32.44C92.0596 30.7054 91.497 29.0065 90.413 27.651C89.9212 27.0667 89.3064 26.5983 88.6125 26.2793C87.9186 25.9603 87.1627 25.7987 86.399 25.806ZM85.72 28.063C88.15 28.063 89.238 30.315 89.238 32.546C89.238 35.425 87.849 37.206 85.616 37.206C84.8742 37.206 84.154 36.9565 83.5712 36.4976C82.9884 36.0387 82.577 35.3971 82.403 34.676C82.334 34.3865 82.3021 34.0895 82.308 33.792V31.6C82.318 31.3729 82.3471 31.1471 82.395 30.925L82.434 30.706C82.6126 29.9637 83.0324 29.3015 83.6275 28.8233C84.2227 28.345 84.9597 28.0776 85.723 28.063H85.72Z" fill="white"/>
<path d="M103.993 28.77C101.448 27.784 100.633 27.01 100.633 25.577C100.633 24.372 101.589 23.155 103.733 23.155C104.852 23.1278 105.958 23.4042 106.933 23.955L107.164 24.097L107.933 21.826L107.781 21.737C106.558 21.0981 105.19 20.7905 103.811 20.845C100.333 20.845 97.9041 22.898 97.9041 25.837C97.9041 28.207 99.4251 29.863 102.691 31.05C105.006 31.915 105.867 32.801 105.867 34.321C105.867 36.04 104.538 37.107 102.402 37.107C101.014 37.1081 99.6529 36.7219 98.4721 35.992L98.2331 35.84L97.5001 38.169L97.6351 38.259C99.0434 39.0451 100.631 39.453 102.244 39.443C106.931 39.443 108.593 36.585 108.593 34.143C108.594 31.614 107.259 30.061 103.993 28.77Z" fill="white"/>
<path d="M113.502 22.9869L110.828 23.8229V26.0939H108.871V28.2729H110.828V34.9489C110.713 36.1805 111.048 37.412 111.772 38.4149C112.115 38.7621 112.528 39.0337 112.982 39.2121C113.436 39.3905 113.923 39.4719 114.411 39.4509C115.127 39.4603 115.839 39.3505 116.518 39.1259L116.671 39.0719L116.541 36.8889L116.279 36.9689C115.867 37.0836 115.44 37.1332 115.012 37.1159C113.955 37.1159 113.504 36.4479 113.504 34.8779V28.2779H116.793V26.1009H113.504L113.502 22.9869Z" fill="white"/>
<path d="M123.551 25.806C119.735 25.806 117.071 28.653 117.071 32.729C117.071 36.683 119.649 39.443 123.342 39.443H123.367C126.488 39.443 129.847 37.269 129.847 32.494C129.91 30.7223 129.287 28.9945 128.109 27.67C127.522 27.0579 126.813 26.5757 126.028 26.2546C125.243 25.9336 124.399 25.7807 123.551 25.806ZM123.472 27.957C125.925 27.957 127.042 30.346 127.042 32.571C127.042 35.305 125.517 37.289 123.42 37.289H123.394C121.326 37.289 119.825 35.338 119.825 32.65C119.825 30.317 120.953 27.959 123.472 27.959V27.957Z" fill="white"/>
<path d="M138.199 25.932L138.036 25.891C137.814 25.8329 137.586 25.8043 137.357 25.806C136.64 25.8217 135.941 26.0355 135.337 26.4238C134.734 26.812 134.25 27.3596 133.938 28.006L133.858 26.094H131.411L131.426 26.323C131.499 27.399 131.526 28.614 131.526 30.25L131.501 39.158H134.228V32.208C134.226 31.8543 134.251 31.5009 134.303 31.151C134.367 30.423 134.692 29.743 135.22 29.2375C135.748 28.7319 136.441 28.4354 137.171 28.403C137.415 28.405 137.659 28.42 137.902 28.448L138.194 28.478L138.199 25.932Z" fill="white"/>
<path d="M144.331 25.777C140.7 25.777 138.165 28.677 138.165 32.827C138.165 36.827 140.687 39.411 144.592 39.411C146.074 39.4441 147.546 39.1618 148.91 38.583L149.073 38.509L148.549 36.478L148.322 36.57C147.237 37.0071 146.074 37.2148 144.905 37.18C144.409 37.2189 143.91 37.1597 143.436 37.0058C142.963 36.8518 142.524 36.6061 142.146 36.2827C141.767 35.9592 141.456 35.5644 141.23 35.1208C141.004 34.6771 140.868 34.1933 140.829 33.697C140.816 33.5403 140.814 33.383 140.821 33.226L149.621 33.253L149.657 33.078C149.721 32.7022 149.749 32.3211 149.741 31.94C149.74 29.101 148.324 25.777 144.331 25.777ZM144.149 27.851C144.517 27.8346 144.884 27.8939 145.228 28.0253C145.572 28.1568 145.886 28.3575 146.149 28.615C146.757 29.3211 147.09 30.2223 147.089 31.154H140.875C140.918 30.2973 141.276 29.4867 141.88 28.8777C142.484 28.2687 143.292 27.9041 144.148 27.854L144.149 27.851Z" fill="white"/>
<path d="M49.1121 8.821C49.9791 8.70276 50.853 8.64229 51.7281 8.64C53.0912 8.52971 54.4498 8.9013 55.5671 9.69C56.0167 10.0617 56.3731 10.5335 56.6077 11.0676C56.8423 11.6018 56.9486 12.1834 56.9181 12.766C56.9413 13.3842 56.8315 14.0003 56.596 14.5724C56.3605 15.1445 56.0048 15.6593 55.5531 16.082C54.3435 16.9775 52.8546 17.4132 51.3531 17.311C50.6061 17.3217 49.8591 17.2883 49.1161 17.211L49.1121 8.821ZM50.3501 16.376C50.761 16.4228 51.1747 16.4402 51.5881 16.428C54.2041 16.44 55.6251 15.113 55.6251 12.808C55.6391 10.77 54.3731 9.518 51.7861 9.518C51.3054 9.51306 50.8253 9.5529 50.3521 9.637L50.3501 16.376Z" fill="white"/>
<path d="M61.303 17.377C60.4893 17.4268 59.689 17.1514 59.0783 16.6113C58.4675 16.0713 58.0962 15.3108 58.046 14.497C58.0404 14.4068 58.0387 14.3164 58.041 14.226C58.0143 13.3885 58.3214 12.5746 58.8947 11.9635C59.468 11.3523 60.2605 10.9939 61.098 10.967C61.204 10.967 61.31 10.967 61.415 10.973C62.2215 10.9124 63.0191 11.1746 63.6323 11.7019C64.2455 12.2292 64.6242 12.9785 64.685 13.785C64.6929 13.8938 64.6952 14.003 64.692 14.112C64.7054 14.5283 64.6366 14.9432 64.4895 15.3329C64.3425 15.7226 64.1202 16.0795 63.8352 16.3833C63.5502 16.687 63.2081 16.9317 62.8286 17.1032C62.449 17.2747 62.0393 17.3698 61.623 17.383C61.523 17.383 61.423 17.383 61.317 17.378L61.303 17.377ZM61.345 16.54C61.6309 16.5267 61.9114 16.4571 62.1704 16.3354C62.4295 16.2136 62.662 16.042 62.8546 15.8304C63.0473 15.6187 63.1964 15.3712 63.2935 15.1019C63.3905 14.8327 63.4335 14.5469 63.42 14.261C63.42 14.224 63.42 14.187 63.412 14.15C63.353 13.757 63.1827 13.3891 62.9212 13.0899C62.6597 12.7906 62.318 12.5725 61.9365 12.4613C61.555 12.3501 61.1496 12.3504 60.7683 12.4623C60.387 12.5742 60.0456 12.7929 59.7847 13.0926C59.5237 13.3923 59.354 13.7605 59.2957 14.1536C59.2373 14.5467 59.2927 14.9482 59.4554 15.3108C59.618 15.6734 59.8811 15.9819 60.2135 16.1997C60.5459 16.4175 60.9337 16.5356 61.331 16.54H61.345Z" fill="white"/>
<path d="M66.652 11.112L67.566 14.218C67.749 14.902 67.931 15.547 68.058 16.18H68.1C68.254 15.56 68.48 14.902 68.705 14.232L69.816 11.118H70.859L71.914 14.18C72.166 14.897 72.363 15.56 72.514 16.18H72.559C72.6923 15.5078 72.866 14.8443 73.079 14.193L74.049 11.118H75.273L73.078 17.24H71.959L70.918 14.316C70.6809 13.6518 70.479 12.9755 70.313 12.29H70.286C70.1229 12.9817 69.9161 13.6624 69.667 14.328L68.567 17.238H67.443L65.389 11.116L66.652 11.112Z" fill="white"/>
<path d="M76.5101 12.769C76.5101 12.124 76.4961 11.617 76.4541 11.11H77.5541L77.6241 12.11H77.6531C77.8992 11.7434 78.2353 11.4462 78.6293 11.2469C79.0234 11.0476 79.462 10.953 79.9031 10.972C80.2088 10.9599 80.514 11.0083 80.801 11.1142C81.0881 11.2201 81.3515 11.3815 81.5761 11.5893C81.8008 11.797 81.9823 12.047 82.1103 12.3249C82.2383 12.6028 82.3103 12.9033 82.3221 13.209C82.3271 13.3325 82.3221 13.4563 82.3071 13.579V17.24H81.0671V13.706C81.0671 12.719 80.6591 11.883 79.4911 11.883C79.1317 11.8816 78.7804 11.9898 78.4841 12.1934C78.1878 12.3969 77.9607 12.686 77.8331 13.022C77.774 13.1885 77.7452 13.3643 77.7481 13.541V17.241H76.5111L76.5101 12.769Z" fill="white"/>
<path d="M84.3151 8.25098H85.5531V17.24H84.3151V8.25098Z" fill="white"/>
<path d="M90.3771 17.377C89.5634 17.4268 88.7631 17.1514 88.1523 16.6113C87.5416 16.0713 87.1703 15.3107 87.1201 14.497C87.1131 14.4068 87.1131 14.3162 87.1201 14.226C87.0934 13.3885 87.4005 12.5746 87.9738 11.9635C88.5471 11.3523 89.3396 10.9939 90.1771 10.967C90.2831 10.967 90.3891 10.967 90.4941 10.973C91.2997 10.914 92.0959 11.1769 92.7079 11.7041C93.32 12.2312 93.698 12.9795 93.7591 13.785C93.7674 13.8934 93.7698 14.0023 93.7661 14.111C93.7928 14.9517 93.4845 15.7686 92.9089 16.382C92.3334 16.9954 91.5378 17.3551 90.6971 17.382H90.3921L90.3771 17.377ZM90.4191 16.54C90.705 16.5268 90.9855 16.4574 91.2446 16.3357C91.5037 16.2141 91.7362 16.0426 91.929 15.831C92.1218 15.6195 92.271 15.3721 92.3682 15.1028C92.4653 14.8336 92.5084 14.5479 92.4951 14.262C92.4951 14.225 92.4951 14.187 92.4871 14.15C92.4281 13.757 92.2578 13.3891 91.9963 13.0899C91.7348 12.7906 91.3931 12.5725 91.0116 12.4613C90.6301 12.3501 90.2247 12.3504 89.8434 12.4623C89.462 12.5742 89.1207 12.7929 88.8598 13.0926C88.5988 13.3923 88.4291 13.7605 88.3708 14.1535C88.3124 14.5466 88.3678 14.9482 88.5305 15.3108C88.6931 15.6734 88.9562 15.9818 89.2886 16.1997C89.6209 16.4175 90.0087 16.5356 90.4061 16.54H90.4191Z" fill="white"/>
<path d="M100.123 15.768C100.117 16.2592 100.151 16.7501 100.223 17.236H99.111L98.998 16.464H98.959C98.7026 16.7622 98.3823 16.9989 98.0218 17.1564C97.6614 17.3139 97.2701 17.3883 96.877 17.374C96.6352 17.4039 96.3898 17.3859 96.155 17.321C95.9201 17.2561 95.7003 17.1455 95.5081 16.9956C95.316 16.8458 95.1553 16.6595 95.0352 16.4475C94.915 16.2354 94.8379 16.0018 94.808 15.76C94.802 15.712 94.798 15.66 94.795 15.615C94.795 14.135 96.258 13.325 98.887 13.337V13.21C98.887 12.703 98.733 11.776 97.341 11.793C96.7157 11.7849 96.0993 11.9418 95.554 12.248L95.272 11.501C95.9675 11.143 96.7399 10.9603 97.522 10.969C97.8675 10.9176 98.2201 10.9463 98.5528 11.0528C98.8854 11.1594 99.189 11.341 99.4403 11.5835C99.6916 11.8261 99.8837 12.1232 100.002 12.4518C100.12 12.7805 100.161 13.1319 100.122 13.479L100.123 15.768ZM98.914 14.11C97.563 14.085 96.03 14.3 96.03 15.489C96.0255 15.6248 96.0478 15.7602 96.0956 15.8875C96.1434 16.0147 96.2158 16.1313 96.3086 16.2306C96.4015 16.3299 96.513 16.4099 96.6368 16.466C96.7606 16.5222 96.8942 16.5534 97.03 16.558C97.0815 16.56 97.1329 16.558 97.184 16.552C97.5346 16.573 97.8831 16.486 98.1827 16.3027C98.4822 16.1195 98.7183 15.8487 98.859 15.527C98.8991 15.4116 98.9181 15.29 98.915 15.168L98.914 14.11Z" fill="white"/>
<path d="M107.985 8.25098V15.66C107.985 16.203 108.001 16.823 108.042 17.242H106.932L106.875 16.178H106.847C106.606 16.5667 106.265 16.8833 105.859 17.0945C105.453 17.3056 104.998 17.4036 104.541 17.378C104.157 17.3793 103.777 17.305 103.422 17.1594C103.067 17.0138 102.744 16.7996 102.472 16.5292C102.2 16.2588 101.983 15.9374 101.835 15.5834C101.687 15.2294 101.61 14.8497 101.609 14.466C101.609 14.399 101.609 14.332 101.615 14.266C101.552 13.4583 101.813 12.6588 102.34 12.0433C102.867 11.4278 103.616 11.0468 104.424 10.984C104.505 10.978 104.586 10.975 104.667 10.975C105.06 10.9439 105.454 11.0122 105.813 11.1737C106.172 11.3352 106.484 11.5847 106.721 11.899H106.749V8.25298L107.985 8.25098ZM106.749 13.604C106.751 13.4429 106.732 13.2822 106.693 13.126C106.579 12.7451 106.342 12.4129 106.019 12.1815C105.695 11.9502 105.304 11.8329 104.907 11.848C104.352 11.8598 103.824 12.0911 103.439 12.4912C103.054 12.8913 102.843 13.4277 102.852 13.983C102.853 14.0562 102.859 14.1293 102.868 14.202C102.803 14.7367 102.953 15.2753 103.285 15.6995C103.617 16.1237 104.103 16.3987 104.638 16.464C104.718 16.474 104.799 16.479 104.879 16.479C105.286 16.489 105.684 16.3641 106.013 16.1236C106.341 15.8832 106.58 15.5408 106.693 15.15C106.733 14.9939 106.752 14.8331 106.749 14.672V13.604Z" fill="white"/>
<path d="M115.791 17.377C114.977 17.4268 114.177 17.1514 113.566 16.6114C112.955 16.0713 112.583 15.3108 112.533 14.497C112.533 14.406 112.526 14.316 112.533 14.226C112.507 13.3882 112.814 12.5742 113.388 11.9631C113.961 11.3519 114.754 10.9936 115.592 10.967C115.697 10.967 115.802 10.969 115.907 10.973C116.714 10.9126 117.512 11.1753 118.125 11.7032C118.738 12.2312 119.117 12.9811 119.177 13.788C119.185 13.8958 119.187 14.0039 119.184 14.112C119.21 14.9526 118.902 15.7693 118.327 16.3827C117.751 16.996 116.956 17.3558 116.115 17.383C116.015 17.383 115.915 17.383 115.809 17.378L115.791 17.377ZM115.834 16.54C116.411 16.5128 116.954 16.2574 117.343 15.8301C117.732 15.4027 117.936 14.8383 117.909 14.261C117.909 14.224 117.909 14.187 117.901 14.15C117.842 13.7574 117.671 13.3899 117.41 13.091C117.149 12.7921 116.807 12.5742 116.426 12.4631C116.045 12.3521 115.64 12.3525 115.259 12.4642C114.878 12.576 114.537 12.7945 114.276 13.0939C114.015 13.3933 113.845 13.7611 113.787 14.1538C113.728 14.5465 113.784 14.9478 113.946 15.3102C114.108 15.6726 114.371 15.981 114.703 16.1989C115.035 16.4168 115.422 16.5352 115.819 16.54H115.834Z" fill="white"/>
<path d="M120.741 12.769C120.741 12.124 120.727 11.617 120.685 11.11H121.785L121.856 12.11H121.883C122.129 11.7434 122.465 11.4463 122.859 11.247C123.253 11.0477 123.692 10.953 124.133 10.972C124.439 10.9598 124.744 11.008 125.031 11.1137C125.318 11.2195 125.582 11.3808 125.807 11.5885C126.032 11.7961 126.213 12.046 126.341 12.3239C126.47 12.6018 126.542 12.9022 126.554 13.208C126.558 13.3318 126.553 13.4558 126.539 13.579V17.24H125.301V13.706C125.301 12.719 124.893 11.883 123.726 11.883C123.366 11.8814 123.015 11.9896 122.718 12.1931C122.422 12.3967 122.194 12.6858 122.066 13.022C122.008 13.1888 121.98 13.3644 121.982 13.541V17.241H120.746L120.741 12.769Z" fill="white"/>
<path d="M133.02 9.63995V11.11H134.793V11.959H133.02V15.259C133.02 16.018 133.259 16.459 133.949 16.459C134.19 16.4674 134.432 16.4415 134.666 16.382L134.722 17.23C134.365 17.3353 133.994 17.3862 133.622 17.381C133.133 17.4058 132.653 17.2378 132.286 16.913C131.923 16.4596 131.751 15.8821 131.808 15.304V11.958H130.759V11.109H131.814V9.98195L133.02 9.63995Z" fill="white"/>
<path d="M136.185 8.25098H137.421V12.075H137.45C137.664 11.7334 137.972 11.4608 138.337 11.29C138.725 11.079 139.16 10.9699 139.602 10.973C139.908 10.964 140.212 11.0154 140.498 11.1241C140.783 11.2328 141.045 11.3967 141.267 11.6065C141.489 11.8163 141.668 12.0678 141.793 12.3467C141.918 12.6256 141.987 12.9264 141.996 13.232C142 13.3522 141.994 13.4726 141.979 13.592V17.24H140.742V13.719C140.742 12.719 140.335 11.897 139.167 11.897C138.811 11.8947 138.462 11.9996 138.166 12.1981C137.87 12.3966 137.641 12.6795 137.508 13.01C137.44 13.1787 137.411 13.3605 137.423 13.542V17.242H136.186L136.185 8.25098Z" fill="white"/>
<path d="M144.693 14.364C144.683 14.6628 144.738 14.9603 144.853 15.2361C144.969 15.5118 145.143 15.7592 145.364 15.9613C145.584 16.1634 145.846 16.3153 146.13 16.4068C146.415 16.4982 146.716 16.5269 147.013 16.491C147.655 16.5093 148.295 16.4075 148.899 16.191L149.123 16.976C148.396 17.2509 147.622 17.384 146.845 17.368C146.049 17.4549 145.252 17.2223 144.627 16.7212C144.003 16.2202 143.603 15.4917 143.516 14.696C143.5 14.5579 143.495 14.4189 143.499 14.28C143.473 13.8712 143.527 13.4613 143.66 13.0736C143.792 12.686 143.999 12.3282 144.27 12.0207C144.541 11.7132 144.869 11.4621 145.237 11.2816C145.605 11.1012 146.004 10.9949 146.413 10.969C146.513 10.963 146.607 10.961 146.705 10.964C147.415 10.9316 148.108 11.1824 148.633 11.6611C149.158 12.1398 149.472 12.8073 149.505 13.517C149.513 13.6278 149.513 13.7391 149.505 13.85C149.51 14.0279 149.496 14.2059 149.464 14.381L144.693 14.364ZM148.308 13.564C148.352 13.1311 148.222 12.6985 147.948 12.3611C147.673 12.0236 147.276 11.8089 146.843 11.764C146.764 11.7561 146.685 11.7538 146.606 11.757C146.119 11.7626 145.653 11.9525 145.3 12.2883C144.948 12.6241 144.735 13.081 144.706 13.567L148.308 13.564Z" fill="white"/>
</g>
<defs>
<clipPath id="clip0">
<rect width="160.121" height="52.577" fill="white" transform="translate(0.300049)"/>
</clipPath>
</defs>
</svg>
