<svg width="24" height="24" viewBox="0 0 24 24" fill="none" xmlns="http://www.w3.org/2000/svg">
<path d="M17.19 13.0001C17.1913 12.1159 16.9518 11.248 16.4973 10.4895C16.0428 9.7311 15.3904 9.11072 14.61 8.69494C13.8297 8.27916 12.9509 8.08367 12.0678 8.12946C11.1848 8.17524 10.3309 8.46057 9.59777 8.95482C8.8646 9.44908 8.27983 10.1336 7.90619 10.935C7.53255 11.7364 7.38414 12.6244 7.47687 13.5037C7.56961 14.383 7.89999 15.2205 8.43258 15.9263C8.96517 16.6321 9.67987 17.1796 10.5 17.5101V19.0901H14.15V17.4901C15.0463 17.1295 15.8145 16.5095 16.3561 15.7096C16.8977 14.9096 17.1881 13.9661 17.19 13.0001Z" stroke="#003665" stroke-linecap="round" stroke-linejoin="round"/>
<path d="M14.15 19.0699V21.4999H10.5V19.0699" stroke="#003665" stroke-linecap="round" stroke-linejoin="round"/>
<path d="M2.54004 11.96H4.26004" stroke="#00AEEF" stroke-linecap="round" stroke-linejoin="round"/>
<path d="M5.31 5.27002L6.53 6.49002" stroke="#00AEEF" stroke-linecap="round" stroke-linejoin="round"/>
<path d="M12 2.5V4.22" stroke="#00AEEF" stroke-linecap="round" stroke-linejoin="round"/>
<path d="M18.69 5.27002L17.47 6.49002" stroke="#00AEEF" stroke-linecap="round" stroke-linejoin="round"/>
<path d="M21.46 11.96H19.74" stroke="#00AEEF" stroke-linecap="round" stroke-linejoin="round"/>
</svg>
